<?xml version="1.0" encoding="UTF-8"?>
<!DOCTYPE svg PUBLIC "-//W3C//DTD SVG 1.1//EN" "http://www.w3.org/Graphics/SVG/1.1/DTD/svg11.dtd">
<svg xmlns="http://www.w3.org/2000/svg" version="1.1" width="281px" height="366px" style="shape-rendering:geometricPrecision; text-rendering:geometricPrecision; image-rendering:optimizeQuality; fill-rule:evenodd; clip-rule:evenodd" xmlns:xlink="http://www.w3.org/1999/xlink">
<g><path style="opacity:1" fill="#020202" d="M -0.5,-0.5 C 93.1667,-0.5 186.833,-0.5 280.5,-0.5C 280.5,121.5 280.5,243.5 280.5,365.5C 186.833,365.5 93.1667,365.5 -0.5,365.5C -0.5,243.5 -0.5,121.5 -0.5,-0.5 Z"/></g>
<g><path style="opacity:1" fill="#050623" d="M 204.5,22.5 C 204.5,23.1667 204.167,23.5 203.5,23.5C 196.608,25.3839 189.608,27.2172 182.5,29C 177.988,31.6627 173.321,33.8293 168.5,35.5C 165.198,36.2937 161.865,36.9604 158.5,37.5C 159.574,35.716 161.24,34.5494 163.5,34C 173.5,30.3341 183.5,26.6675 193.5,23C 197.152,22.5014 200.818,22.3347 204.5,22.5 Z"/></g>
<g><path style="opacity:1" fill="#2b4e9d" d="M 203.5,23.5 C 201.674,28.4844 199.341,33.1511 196.5,37.5C 196.949,34.359 197.949,31.359 199.5,28.5C 198.833,28.1667 198.167,27.8333 197.5,27.5C 187.826,30.1696 178.159,32.8363 168.5,35.5C 173.321,33.8293 177.988,31.6627 182.5,29C 189.608,27.2172 196.608,25.3839 203.5,23.5 Z"/></g>
<g><path style="opacity:1" fill="#165ede" d="M 196.5,37.5 C 194.228,39.5689 192.228,41.9022 190.5,44.5C 190.665,41.1501 190.498,37.8168 190,34.5C 189.586,34.0426 189.086,33.7093 188.5,33.5C 186.556,34.1892 184.556,34.6892 182.5,35C 184.42,36.1223 186.42,36.9556 188.5,37.5C 188.868,40.0558 188.034,42.0558 186,43.5C 183.966,42.0558 183.132,40.0558 183.5,37.5C 182.07,37.4208 180.736,37.7542 179.5,38.5C 178.833,40.8333 178.167,43.1667 177.5,45.5C 176.808,44.9747 176.308,44.3081 176,43.5C 173.894,45.291 171.394,45.9577 168.5,45.5C 168.5,44.1667 168.5,42.8333 168.5,41.5C 165.167,41.5 161.833,41.5 158.5,41.5C 158.5,42.8333 158.5,44.1667 158.5,45.5C 155.951,45.6126 153.618,44.9459 151.5,43.5C 150.5,44 149.5,44.5 148.5,45C 151.71,47.0395 155.043,48.8728 158.5,50.5C 157.5,50.8333 156.5,51.1667 155.5,51.5C 150.8,50.9156 146.467,49.5822 142.5,47.5C 142.5,48.5 142.5,49.5 142.5,50.5C 140.54,51.1383 138.707,51.1383 137,50.5C 136.5,51.6667 135.667,52.5 134.5,53C 135.167,53.3333 135.833,53.6667 136.5,54C 133.112,54.6588 129.779,54.4922 126.5,53.5C 126.414,52.5041 126.748,51.6708 127.5,51C 140.618,45.7774 153.951,41.1107 167.5,37C 168.056,36.6174 168.389,36.1174 168.5,35.5C 178.159,32.8363 187.826,30.1696 197.5,27.5C 198.167,27.8333 198.833,28.1667 199.5,28.5C 197.949,31.359 196.949,34.359 196.5,37.5 Z"/></g>
<g><path style="opacity:1" fill="#001345" d="M 158.5,37.5 C 155.203,39.6013 151.537,40.9347 147.5,41.5C 150.6,38.7905 154.267,37.4571 158.5,37.5 Z"/></g>
<g><path style="opacity:1" fill="#2b53ae" d="M 168.5,35.5 C 168.389,36.1174 168.056,36.6174 167.5,37C 153.951,41.1107 140.618,45.7774 127.5,51C 126.748,51.6708 126.414,52.5041 126.5,53.5C 125.5,53.5 124.5,53.5 123.5,53.5C 123.232,51.901 123.566,50.5676 124.5,49.5C 132.349,47.0613 140.016,44.3947 147.5,41.5C 151.537,40.9347 155.203,39.6013 158.5,37.5C 161.865,36.9604 165.198,36.2937 168.5,35.5 Z"/></g>
<g><path style="opacity:1" fill="#00113e" d="M 147.5,41.5 C 140.016,44.3947 132.349,47.0613 124.5,49.5C 127.813,46.7808 131.479,44.7808 135.5,43.5C 139.374,42.2387 143.374,41.572 147.5,41.5 Z"/></g>
<g><path style="opacity:1" fill="#3161b4" d="M 196.5,37.5 C 192.085,46.6648 187.418,55.6648 182.5,64.5C 182.34,62.8008 182.506,61.1341 183,59.5C 185.61,54.4713 188.11,49.4713 190.5,44.5C 192.228,41.9022 194.228,39.5689 196.5,37.5 Z"/></g>
<g><path style="opacity:1" fill="#125de4" d="M 190.5,44.5 C 188.11,49.4713 185.61,54.4713 183,59.5C 182.506,61.1341 182.34,62.8008 182.5,64.5C 180.983,64.5106 179.816,65.1772 179,66.5C 177.787,70.2329 176.62,73.8996 175.5,77.5C 170.779,82.1047 167.779,87.7713 166.5,94.5C 164.051,96.6867 162.051,99.3534 160.5,102.5C 158.74,107.673 156.74,112.673 154.5,117.5C 153.624,117.369 152.957,117.702 152.5,118.5C 150.271,122.718 147.771,126.718 145,130.5C 144.669,134.155 143.502,137.488 141.5,140.5C 140.5,140.5 139.5,140.5 138.5,140.5C 138.337,142.857 138.503,145.19 139,147.5C 142.158,150.219 145.658,152.386 149.5,154C 147.323,155.202 144.989,155.702 142.5,155.5C 142.5,156.5 142.5,157.5 142.5,158.5C 131.609,162.611 120.943,167.278 110.5,172.5C 100.167,172.5 89.8333,172.5 79.5,172.5C 79.722,169.496 80.722,166.829 82.5,164.5C 83.7117,162.093 85.2117,159.76 87,157.5C 87.5006,151.333 90.0006,146.166 94.5,142C 94.0426,141.586 93.7093,141.086 93.5,140.5C 97.4181,133.35 99.7515,125.683 100.5,117.5C 103.371,108.72 106.538,100.054 110,91.5C 110.495,89.5273 110.662,87.5273 110.5,85.5C 112.89,83.2661 114.724,80.5994 116,77.5C 118.823,69.534 121.323,61.534 123.5,53.5C 124.5,53.5 125.5,53.5 126.5,53.5C 129.779,54.4922 133.112,54.6588 136.5,54C 135.833,53.6667 135.167,53.3333 134.5,53C 135.667,52.5 136.5,51.6667 137,50.5C 138.707,51.1383 140.54,51.1383 142.5,50.5C 142.5,49.5 142.5,48.5 142.5,47.5C 146.467,49.5822 150.8,50.9156 155.5,51.5C 156.5,51.1667 157.5,50.8333 158.5,50.5C 155.043,48.8728 151.71,47.0395 148.5,45C 149.5,44.5 150.5,44 151.5,43.5C 153.618,44.9459 155.951,45.6126 158.5,45.5C 158.5,44.1667 158.5,42.8333 158.5,41.5C 161.833,41.5 165.167,41.5 168.5,41.5C 168.5,42.8333 168.5,44.1667 168.5,45.5C 171.394,45.9577 173.894,45.291 176,43.5C 176.308,44.3081 176.808,44.9747 177.5,45.5C 178.167,43.1667 178.833,40.8333 179.5,38.5C 180.736,37.7542 182.07,37.4208 183.5,37.5C 183.132,40.0558 183.966,42.0558 186,43.5C 188.034,42.0558 188.868,40.0558 188.5,37.5C 186.42,36.9556 184.42,36.1223 182.5,35C 184.556,34.6892 186.556,34.1892 188.5,33.5C 189.086,33.7093 189.586,34.0426 190,34.5C 190.498,37.8168 190.665,41.1501 190.5,44.5 Z"/></g>
<g><path style="opacity:1" fill="#343941" d="M 212.5,20.5 C 213.598,21.6009 213.765,22.9343 213,24.5C 203.747,41.2346 194.747,58.2346 186,75.5C 185.617,74.944 185.117,74.6107 184.5,74.5C 193.643,56.4059 202.976,38.4059 212.5,20.5 Z"/></g>
<g><path style="opacity:1" fill="#05061e" d="M 135.5,43.5 C 131.479,44.7808 127.813,46.7808 124.5,49.5C 123.566,50.5676 123.232,51.901 123.5,53.5C 121.802,56.2314 120.469,59.2314 119.5,62.5C 118.758,63.2868 117.925,63.9535 117,64.5C 115.763,71.9149 113.596,78.9149 110.5,85.5C 110.167,85.5 109.833,85.5 109.5,85.5C 109.192,83.076 109.526,80.7427 110.5,78.5C 113.072,72.9738 115.239,67.3072 117,61.5C 117.758,59.2305 117.591,57.0639 116.5,55C 117.793,54.51 119.127,54.3433 120.5,54.5C 120.656,51.1589 121.989,48.3255 124.5,46C 128.112,44.85 131.778,44.0166 135.5,43.5 Z"/></g>
<g><path style="opacity:1" fill="#3463b3" d="M 182.5,64.5 C 180.926,69.3195 178.593,73.6528 175.5,77.5C 176.62,73.8996 177.787,70.2329 179,66.5C 179.816,65.1772 180.983,64.5106 182.5,64.5 Z"/></g>
<g><path style="opacity:1" fill="#21479b" d="M 123.5,53.5 C 121.323,61.534 118.823,69.534 116,77.5C 114.724,80.5994 112.89,83.2661 110.5,85.5C 113.596,78.9149 115.763,71.9149 117,64.5C 117.925,63.9535 118.758,63.2868 119.5,62.5C 120.469,59.2314 121.802,56.2314 123.5,53.5 Z"/></g>
<g><path style="opacity:1" fill="#eef7fa" d="M 212.5,20.5 C 202.976,38.4059 193.643,56.4059 184.5,74.5C 180.659,80.849 177.325,87.5157 174.5,94.5C 165.697,110.168 157.031,126.001 148.5,142C 166.83,142.5 185.164,142.667 203.5,142.5C 205.377,143.659 205.877,145.326 205,147.5C 200,154.5 195,161.5 190,168.5C 189.292,167.619 188.458,166.953 187.5,166.5C 187.167,165.833 186.833,165.167 186.5,164.5C 190.022,159.312 193.689,154.146 197.5,149C 196.552,148.517 195.552,148.351 194.5,148.5C 177.338,147.668 160.005,147.168 142.5,147C 141.446,145.612 141.28,144.112 142,142.5C 146.689,134.455 150.856,126.121 154.5,117.5C 158.721,110.061 162.721,102.395 166.5,94.5C 170.245,89.3479 173.245,83.6813 175.5,77.5C 178.593,73.6528 180.926,69.3195 182.5,64.5C 187.418,55.6648 192.085,46.6648 196.5,37.5C 199.341,33.1511 201.674,28.4844 203.5,23.5C 204.167,23.5 204.5,23.1667 204.5,22.5C 207.221,22.0372 209.888,21.3705 212.5,20.5 Z"/></g>
<g><path style="opacity:1" fill="#2b303a" d="M 184.5,74.5 C 184.38,82.7398 181.047,89.4065 174.5,94.5C 177.325,87.5157 180.659,80.849 184.5,74.5 Z"/></g>
<g><path style="opacity:1" fill="#3162b5" d="M 175.5,77.5 C 173.245,83.6813 170.245,89.3479 166.5,94.5C 167.779,87.7713 170.779,82.1047 175.5,77.5 Z"/></g>
<g><path style="opacity:1" fill="#3660b1" d="M 166.5,94.5 C 162.721,102.395 158.721,110.061 154.5,117.5C 156.74,112.673 158.74,107.673 160.5,102.5C 162.051,99.3534 164.051,96.6867 166.5,94.5 Z"/></g>
<g><path style="opacity:1" fill="#2650a7" d="M 109.5,85.5 C 109.833,85.5 110.167,85.5 110.5,85.5C 110.662,87.5273 110.495,89.5273 110,91.5C 106.538,100.054 103.371,108.72 100.5,117.5C 99.3468,120.47 97.6801,123.137 95.5,125.5C 96.3705,122.888 97.0372,120.221 97.5,117.5C 102.466,107.278 106.466,96.6115 109.5,85.5 Z"/></g>
<g><path style="opacity:1" fill="#030a33" d="M 109.5,85.5 C 106.466,96.6115 102.466,107.278 97.5,117.5C 99.3736,110.085 101.54,102.751 104,95.5C 104.667,94.8333 105.333,94.1667 106,93.5C 106.287,91.1093 106.787,88.7759 107.5,86.5C 107.957,85.7025 108.624,85.3691 109.5,85.5 Z"/></g>
<g><path style="opacity:1" fill="#3b424e" d="M 174.5,94.5 C 174.477,96.9267 173.977,99.26 173,101.5C 167.827,109.88 163.327,118.547 159.5,127.5C 157.076,130.008 155.41,133.008 154.5,136.5C 152.534,137.255 152.2,138.421 153.5,140C 170.53,139.845 187.197,140.678 203.5,142.5C 185.164,142.667 166.83,142.5 148.5,142C 157.031,126.001 165.697,110.168 174.5,94.5 Z"/></g>
<g><path style="opacity:1" fill="#00103b" d="M 94.5,125.5 C 92.0495,133.518 89.3828,141.518 86.5,149.5C 86.1667,149.5 85.8333,149.5 85.5,149.5C 86.6367,145.583 87.47,141.583 88,137.5C 90.1692,133.382 92.3359,129.382 94.5,125.5 Z"/></g>
<g><path style="opacity:1" fill="#030613" d="M 228.5,266.5 C 230.242,263.393 231.575,260.059 232.5,256.5C 234.074,256.063 235.241,255.063 236,253.5C 259.874,208.973 259.207,164.973 234,121.5C 233.184,120.177 232.017,119.511 230.5,119.5C 229.15,117.317 227.316,115.65 225,114.5C 223.124,115.619 222.291,117.286 222.5,119.5C 227.979,129.056 232.812,139.056 237,149.5C 239.685,156.256 241.351,163.256 242,170.5C 243.121,185.931 242.455,201.265 240,216.5C 238.725,220.042 237.225,223.375 235.5,226.5C 236.901,220.604 237.734,214.604 238,208.5C 239.515,206.453 240.349,204.119 240.5,201.5C 241.908,189.811 241.741,178.144 240,166.5C 238.885,160.542 237.052,154.875 234.5,149.5C 233.178,149.67 232.011,149.337 231,148.5C 231.499,145.482 231.332,142.482 230.5,139.5C 228.877,138.509 227.877,139.176 227.5,141.5C 228.609,143.214 227.942,143.881 225.5,143.5C 224.907,146.596 225.907,148.929 228.5,150.5C 230.442,154.591 232.109,158.758 233.5,163C 233.409,176.801 233.242,190.634 233,204.5C 231.376,210.407 230.209,216.407 229.5,222.5C 227.572,223.924 226.238,225.758 225.5,228C 226.022,228.95 226.689,229.784 227.5,230.5C 225.897,235.794 222.564,239.46 217.5,241.5C 229.983,218.942 234.317,194.775 230.5,169C 227.537,162.107 225.37,154.941 224,147.5C 220.905,143.411 218.239,139.077 216,134.5C 214.246,131.581 211.746,129.581 208.5,128.5C 206.517,128.815 205.184,129.815 204.5,131.5C 203.527,133.948 203.194,136.615 203.5,139.5C 187.167,139.5 170.833,139.5 154.5,139.5C 154.5,138.5 154.5,137.5 154.5,136.5C 155.41,133.008 157.076,130.008 159.5,127.5C 158.321,130.371 158.321,133.204 159.5,136C 172.828,137.433 186.162,137.6 199.5,136.5C 200.021,134.139 200.354,131.806 200.5,129.5C 205.319,124.624 210.486,124.624 216,129.5C 218.746,134.067 221.246,138.734 223.5,143.5C 226.116,140.616 227.282,137.283 227,133.5C 223.744,128.123 219.91,123.29 215.5,119C 217.569,118.676 217.902,117.842 216.5,116.5C 217.742,114.267 219.076,112.101 220.5,110C 223.131,110.277 225.631,110.11 228,109.5C 228.918,111.632 230.251,112.299 232,111.5C 232.873,115.575 234.539,119.242 237,122.5C 237.333,121.833 237.667,121.167 238,120.5C 239.355,124.194 241.522,127.361 244.5,130C 243.978,130.561 243.645,131.228 243.5,132C 246.221,141.209 249.554,150.209 253.5,159C 252.86,161.057 253.027,163.223 254,165.5C 255.522,187.371 254.189,209.037 250,230.5C 248.997,235.01 247.497,239.343 245.5,243.5C 245.709,244.086 246.043,244.586 246.5,245C 244.096,245.508 243.429,246.675 244.5,248.5C 243.469,249.7 242.635,251.034 242,252.5C 238.243,253.578 235.41,256.245 233.5,260.5C 234.88,264.799 233.214,266.799 228.5,266.5 Z"/></g>
<g><path style="opacity:1" fill="#2b55aa" d="M 94.5,125.5 C 94.8333,125.5 95.1667,125.5 95.5,125.5C 94.9834,129.222 94.15,132.888 93,136.5C 91.2935,141.156 89.1269,145.49 86.5,149.5C 89.3828,141.518 92.0495,133.518 94.5,125.5 Z"/></g>
<g><path style="opacity:1" fill="#ecf3f7" d="M 230.5,119.5 C 254.337,157.223 257.837,196.889 241,238.5C 238.412,244.673 235.579,250.673 232.5,256.5C 230.31,259.688 227.976,262.855 225.5,266C 223.075,266.986 221.409,266.319 220.5,264C 243.433,230.577 250.266,194.077 241,154.5C 236.887,141.6 230.72,129.933 222.5,119.5C 222.291,117.286 223.124,115.619 225,114.5C 227.316,115.65 229.15,117.317 230.5,119.5 Z"/></g>
<g><path style="opacity:1" fill="#1f5cd0" d="M 100.5,117.5 C 99.7515,125.683 97.4181,133.35 93.5,140.5C 93.7093,141.086 94.0426,141.586 94.5,142C 90.0006,146.166 87.5006,151.333 87,157.5C 85.2117,159.76 83.7117,162.093 82.5,164.5C 82.5,163.167 82.5,161.833 82.5,160.5C 82.5751,157.794 82.9084,155.127 83.5,152.5C 84.1667,151.5 84.8333,150.5 85.5,149.5C 85.8333,149.5 86.1667,149.5 86.5,149.5C 89.1269,145.49 91.2935,141.156 93,136.5C 94.15,132.888 94.9834,129.222 95.5,125.5C 97.6801,123.137 99.3468,120.47 100.5,117.5 Z"/></g>
<g><path style="opacity:1" fill="#4f77c4" d="M 154.5,117.5 C 150.856,126.121 146.689,134.455 142,142.5C 141.28,144.112 141.446,145.612 142.5,147C 160.005,147.168 177.338,147.668 194.5,148.5C 177.5,148.5 160.5,148.5 143.5,148.5C 140.95,148.116 139.617,146.616 139.5,144C 139.862,142.566 140.528,141.399 141.5,140.5C 143.502,137.488 144.669,134.155 145,130.5C 147.771,126.718 150.271,122.718 152.5,118.5C 152.957,117.702 153.624,117.369 154.5,117.5 Z"/></g>
<g><path style="opacity:1" fill="#313a4e" d="M 217.5,241.5 C 214.873,245.208 211.873,248.708 208.5,252C 203.008,252.486 201.175,249.986 203,244.5C 205,241.833 207,239.167 209,236.5C 210.511,233.204 211.677,229.871 212.5,226.5C 216.031,221.45 218.531,215.784 220,209.5C 221.54,196.876 221.874,184.209 221,171.5C 219.224,163.657 216.39,156.324 212.5,149.5C 212.068,148.29 211.401,147.29 210.5,146.5C 209.335,142.826 207.501,139.492 205,136.5C 204.506,134.866 204.34,133.199 204.5,131.5C 205.184,129.815 206.517,128.815 208.5,128.5C 211.746,129.581 214.246,131.581 216,134.5C 218.239,139.077 220.905,143.411 224,147.5C 225.37,154.941 227.537,162.107 230.5,169C 234.317,194.775 229.983,218.942 217.5,241.5 Z"/></g>
<g><path style="opacity:1" fill="#244da2" d="M 143.5,148.5 C 160.5,148.5 177.5,148.5 194.5,148.5C 195.552,148.351 196.552,148.517 197.5,149C 193.689,154.146 190.022,159.312 186.5,164.5C 171.932,157.929 157.265,157.929 142.5,164.5C 143.348,162.907 144.681,161.74 146.5,161C 156.246,157.898 166.246,156.731 176.5,157.5C 179.051,158.828 181.718,160.161 184.5,161.5C 185.167,161.333 185.833,161.167 186.5,161C 189.805,158.219 191.472,154.719 191.5,150.5C 175.342,149.946 159.342,149.279 143.5,148.5 Z"/></g>
<g><path style="opacity:1" fill="#1459d7" d="M 141.5,140.5 C 140.528,141.399 139.862,142.566 139.5,144C 139.617,146.616 140.95,148.116 143.5,148.5C 159.342,149.279 175.342,149.946 191.5,150.5C 191.472,154.719 189.805,158.219 186.5,161C 185.833,161.167 185.167,161.333 184.5,161.5C 181.718,160.161 179.051,158.828 176.5,157.5C 172.722,155.439 168.556,154.439 164,154.5C 156.67,155.424 149.503,156.758 142.5,158.5C 142.5,157.5 142.5,156.5 142.5,155.5C 144.989,155.702 147.323,155.202 149.5,154C 145.658,152.386 142.158,150.219 139,147.5C 138.503,145.19 138.337,142.857 138.5,140.5C 139.5,140.5 140.5,140.5 141.5,140.5 Z"/></g>
<g><path style="opacity:1" fill="#070722" d="M 83.5,152.5 C 82.9084,155.127 82.5751,157.794 82.5,160.5C 80.3987,163.797 79.0653,167.463 78.5,171.5C 77.596,172.209 77.2627,173.209 77.5,174.5C 77.1667,174.5 76.8333,174.5 76.5,174.5C 76.5405,168.997 77.3738,163.664 79,158.5C 79.6236,155.726 81.1236,153.726 83.5,152.5 Z"/></g>
<g><path style="opacity:1" fill="#011039" d="M 186.5,164.5 C 186.833,165.167 187.167,165.833 187.5,166.5C 186.833,167.167 186.167,167.833 185.5,168.5C 185.167,168.5 184.833,168.5 184.5,168.5C 182.685,165.593 180.019,164.259 176.5,164.5C 176.082,163.778 175.416,163.278 174.5,163C 168.5,162.333 162.5,162.333 156.5,163C 151.637,164.799 146.637,166.133 141.5,167C 136.102,170.698 130.435,173.864 124.5,176.5C 123.508,176.672 122.842,176.338 122.5,175.5C 122.5,175.167 122.5,174.833 122.5,174.5C 128.966,170.685 135.633,167.351 142.5,164.5C 157.265,157.929 171.932,157.929 186.5,164.5 Z"/></g>
<g><path style="opacity:1" fill="#515971" d="M 176.5,164.5 C 180.019,164.259 182.685,165.593 184.5,168.5C 181.702,167.35 179.035,166.017 176.5,164.5 Z"/></g>
<g><path style="opacity:1" fill="#0b44b7" d="M 176.5,157.5 C 166.246,156.731 156.246,157.898 146.5,161C 144.681,161.74 143.348,162.907 142.5,164.5C 135.255,165.955 128.589,168.788 122.5,173C 118.525,172.983 114.525,172.816 110.5,172.5C 120.943,167.278 131.609,162.611 142.5,158.5C 149.503,156.758 156.67,155.424 164,154.5C 168.556,154.439 172.722,155.439 176.5,157.5 Z"/></g>
<g><path style="opacity:1" fill="#050915" d="M 204.5,152.5 C 203.601,157.833 205.434,160.833 210,161.5C 211.929,169.669 213.096,177.836 213.5,186C 212.894,193.192 212.061,200.359 211,207.5C 209.723,209.747 208.223,211.747 206.5,213.5C 211.532,197.537 211.699,181.537 207,165.5C 206.184,164.177 205.017,163.511 203.5,163.5C 203.103,162.475 202.437,162.308 201.5,163C 200.695,164.113 200.028,165.279 199.5,166.5C 198.848,167.449 198.514,168.615 198.5,170C 200.184,179.109 200.684,188.276 200,197.5C 199.02,202.757 197.52,207.757 195.5,212.5C 195.607,206.717 196.107,201.05 197,195.5C 195.416,196.861 193.582,197.528 191.5,197.5C 191.555,202.112 189.222,204.445 184.5,204.5C 185.11,203.609 185.443,202.609 185.5,201.5C 186.5,201.167 187.167,200.5 187.5,199.5C 189.411,199.426 190.578,198.426 191,196.5C 194.941,188.942 195.275,181.275 192,173.5C 190.59,172.213 189.09,171.046 187.5,170C 190.007,169.907 192.174,169.074 194,167.5C 196.366,163.48 198.699,159.48 201,155.5C 202.039,154.29 203.206,153.29 204.5,152.5 Z"/></g>
<g><path style="opacity:1" fill="#030918" d="M 212.5,149.5 C 216.39,156.324 219.224,163.657 221,171.5C 221.874,184.209 221.54,196.876 220,209.5C 218.531,215.784 216.031,221.45 212.5,226.5C 214.681,219.093 216.181,211.427 217,203.5C 219.589,199.889 220.755,195.722 220.5,191C 220.222,184.835 219.222,178.835 217.5,173C 217.957,172.586 218.291,172.086 218.5,171.5C 217.177,167.593 216.177,163.593 215.5,159.5C 214.522,159.023 213.689,158.357 213,157.5C 212.503,154.854 212.336,152.187 212.5,149.5 Z"/></g>
<g><path style="opacity:1" fill="#406ca2" d="M 78.5,171.5 C 86.6168,173.155 94.9501,174.155 103.5,174.5C 94.8333,174.5 86.1667,174.5 77.5,174.5C 77.2627,173.209 77.596,172.209 78.5,171.5 Z"/></g>
<g><path style="opacity:1" fill="#1f499a" d="M 82.5,160.5 C 82.5,161.833 82.5,163.167 82.5,164.5C 80.722,166.829 79.722,169.496 79.5,172.5C 89.8333,172.5 100.167,172.5 110.5,172.5C 114.525,172.816 118.525,172.983 122.5,173C 128.589,168.788 135.255,165.955 142.5,164.5C 135.633,167.351 128.966,170.685 122.5,174.5C 116.167,174.5 109.833,174.5 103.5,174.5C 94.9501,174.155 86.6168,173.155 78.5,171.5C 79.0653,167.463 80.3987,163.797 82.5,160.5 Z"/></g>
<g><path style="opacity:1" fill="#c4e4fc" d="M 76.5,175.5 C 76.5,175.167 76.5,174.833 76.5,174.5C 76.8333,174.5 77.1667,174.5 77.5,174.5C 86.1667,174.5 94.8333,174.5 103.5,174.5C 109.833,174.5 116.167,174.5 122.5,174.5C 122.5,174.833 122.5,175.167 122.5,175.5C 121.833,175.833 121.167,176.167 120.5,176.5C 106.01,175.504 91.3428,175.171 76.5,175.5 Z"/></g>
<g><path style="opacity:1" fill="#f6fdfd" d="M 76.5,175.5 C 91.3428,175.171 106.01,175.504 120.5,176.5C 118.5,177.5 116.5,178.5 114.5,179.5C 101.323,179.829 88.3226,179.495 75.5,178.5C 75.5569,177.391 75.8902,176.391 76.5,175.5 Z"/></g>
<g><path style="opacity:1" fill="#cdd0d9" d="M 75.5,178.5 C 88.3226,179.495 101.323,179.829 114.5,179.5C 114.158,180.338 113.492,180.672 112.5,180.5C 99.8333,180.5 87.1667,180.5 74.5,180.5C 74.3284,179.508 74.6618,178.842 75.5,178.5 Z"/></g>
<g><path style="opacity:1" fill="#0c0f1a" d="M 122.5,175.5 C 122.842,176.338 123.508,176.672 124.5,176.5C 119.012,180.748 113.012,184.248 106.5,187C 105.252,188.4 104.252,189.9 103.5,191.5C 100.322,194.258 96.6553,196.258 92.5,197.5C 89.6726,197.584 87.006,198.25 84.5,199.5C 85.7386,197.299 87.0719,195.132 88.5,193C 90.8333,192.667 93.1667,192.333 95.5,192C 98.1667,189.667 100.833,187.333 103.5,185C 93.9853,184.49 84.652,183.656 75.5,182.5C 85.5056,182.666 95.5056,182.5 105.5,182C 108.036,181.814 110.369,181.314 112.5,180.5C 113.492,180.672 114.158,180.338 114.5,179.5C 116.5,178.5 118.5,177.5 120.5,176.5C 121.167,176.167 121.833,175.833 122.5,175.5 Z"/></g>
<g><path style="opacity:1" fill="#374154" d="M 176.5,164.5 C 166.923,162.636 157.59,163.47 148.5,167C 142.713,169.394 137.046,172.06 131.5,175C 122.276,180.775 112.943,186.275 103.5,191.5C 104.252,189.9 105.252,188.4 106.5,187C 113.012,184.248 119.012,180.748 124.5,176.5C 130.435,173.864 136.102,170.698 141.5,167C 146.637,166.133 151.637,164.799 156.5,163C 162.5,162.333 168.5,162.333 174.5,163C 175.416,163.278 176.082,163.778 176.5,164.5 Z"/></g>
<g><path style="opacity:1" fill="#202736" d="M 204.5,131.5 C 204.34,133.199 204.506,134.866 205,136.5C 207.501,139.492 209.335,142.826 210.5,146.5C 209.603,147.598 208.77,147.598 208,146.5C 206.923,148.578 205.757,150.578 204.5,152.5C 203.206,153.29 202.039,154.29 201,155.5C 198.699,159.48 196.366,163.48 194,167.5C 192.174,169.074 190.007,169.907 187.5,170C 189.09,171.046 190.59,172.213 192,173.5C 195.275,181.275 194.941,188.942 191,196.5C 190.578,198.426 189.411,199.426 187.5,199.5C 188.441,197.95 189.107,196.284 189.5,194.5C 192.045,189.813 192.879,184.813 192,179.5C 190.339,175.508 188.173,171.842 185.5,168.5C 186.167,167.833 186.833,167.167 187.5,166.5C 188.458,166.953 189.292,167.619 190,168.5C 195,161.5 200,154.5 205,147.5C 205.877,145.326 205.377,143.659 203.5,142.5C 187.197,140.678 170.53,139.845 153.5,140C 152.2,138.421 152.534,137.255 154.5,136.5C 154.5,137.5 154.5,138.5 154.5,139.5C 170.833,139.5 187.167,139.5 203.5,139.5C 203.194,136.615 203.527,133.948 204.5,131.5 Z"/></g>
<g><path style="opacity:1" fill="#e9f0f4" d="M 176.5,164.5 C 179.035,166.017 181.702,167.35 184.5,168.5C 184.833,168.5 185.167,168.5 185.5,168.5C 188.173,171.842 190.339,175.508 192,179.5C 192.879,184.813 192.045,189.813 189.5,194.5C 189.167,194.5 188.833,194.5 188.5,194.5C 190.83,182.655 186.497,174.489 175.5,170C 160.37,168.372 146.37,171.705 133.5,180C 116.352,192.141 98.0191,202.141 78.5,210C 71.9226,211.596 65.2559,212.43 58.5,212.5C 46.1492,211.48 40.8159,204.813 42.5,192.5C 44.4884,189.872 46.4884,187.205 48.5,184.5C 49.8793,181.927 51.8793,180.427 54.5,180C 53.1175,181.271 52.1175,182.771 51.5,184.5C 46.5185,189.322 45.3518,194.988 48,201.5C 49.5429,203.378 51.3762,204.878 53.5,206C 67.5941,207.724 80.5941,204.89 92.5,197.5C 96.6553,196.258 100.322,194.258 103.5,191.5C 112.943,186.275 122.276,180.775 131.5,175C 137.046,172.06 142.713,169.394 148.5,167C 157.59,163.47 166.923,162.636 176.5,164.5 Z"/></g>
<g><path style="opacity:1" fill="#262d3b" d="M 74.5,180.5 C 87.1667,180.5 99.8333,180.5 112.5,180.5C 110.369,181.314 108.036,181.814 105.5,182C 95.5056,182.5 85.5056,182.666 75.5,182.5C 74.6618,182.158 74.3284,181.492 74.5,180.5 Z"/></g>
<g><path style="opacity:1" fill="#9198a6" d="M 187.5,194.5 C 187.833,194.5 188.167,194.5 188.5,194.5C 188.833,194.5 189.167,194.5 189.5,194.5C 189.107,196.284 188.441,197.95 187.5,199.5C 187.167,200.5 186.5,201.167 185.5,201.5C 186.455,199.254 187.122,196.921 187.5,194.5 Z"/></g>
<g><path style="opacity:1" fill="#313c4f" d="M 188.5,194.5 C 188.167,194.5 187.833,194.5 187.5,194.5C 187.813,190.958 187.479,187.625 186.5,184.5C 184.718,178.218 180.718,174.051 174.5,172C 168.833,171.333 163.167,171.333 157.5,172C 140.078,178.1 124.078,186.766 109.5,198C 102.698,201.234 96.0313,204.734 89.5,208.5C 83.7982,210.545 78.1315,212.212 72.5,213.5C 67.6367,213.819 62.97,213.486 58.5,212.5C 65.2559,212.43 71.9226,211.596 78.5,210C 98.0191,202.141 116.352,192.141 133.5,180C 146.37,171.705 160.37,168.372 175.5,170C 186.497,174.489 190.83,182.655 188.5,194.5 Z"/></g>
<g><path style="opacity:1" fill="#171c28" d="M 186.5,184.5 C 187.479,187.625 187.813,190.958 187.5,194.5C 187.122,196.921 186.455,199.254 185.5,201.5C 185.443,202.609 185.11,203.609 184.5,204.5C 183.833,204.833 183.167,205.167 182.5,205.5C 182.539,204.417 182.873,203.417 183.5,202.5C 182.675,201.614 181.675,201.281 180.5,201.5C 180.892,206.141 178.892,208.474 174.5,208.5C 178.955,203.015 180.622,196.681 179.5,189.5C 179.5,188.5 179.5,187.5 179.5,186.5C 180.458,186.953 181.292,187.619 182,188.5C 182.333,191.167 182.667,193.833 183,196.5C 184.395,197.815 185.395,197.481 186,195.5C 186.499,191.848 186.665,188.182 186.5,184.5 Z"/></g>
<g><path style="opacity:1" fill="#303a4f" d="M 172.5,209.5 C 172.167,209.5 171.833,209.5 171.5,209.5C 171.5,208.167 171.5,206.833 171.5,205.5C 172.911,202.204 173.911,198.704 174.5,195C 170.428,189.729 165.095,188.062 158.5,190C 155.226,191.202 151.893,192.202 148.5,193C 147.944,193.383 147.611,193.883 147.5,194.5C 143.794,196.506 140.127,198.506 136.5,200.5C 125.806,206.906 115.139,213.406 104.5,220C 88.6756,229.039 71.6756,234.206 53.5,235.5C 50.5,235.333 47.5,235.167 44.5,235C 42.9336,234.392 41.6002,233.558 40.5,232.5C 54.5776,234.75 68.2442,233.25 81.5,228C 100.479,219.67 118.479,209.67 135.5,198C 142.595,194.119 149.929,190.785 157.5,188C 175.187,186.196 180.187,193.363 172.5,209.5 Z"/></g>
<g><path style="opacity:1" fill="#03050d" d="M 171.5,205.5 C 171.5,206.833 171.5,208.167 171.5,209.5C 169.891,210.898 169.058,212.565 169,214.5C 170.707,212.963 172.207,211.296 173.5,209.5C 174.167,209.5 174.5,209.167 174.5,208.5C 178.892,208.474 180.892,206.141 180.5,201.5C 181.675,201.281 182.675,201.614 183.5,202.5C 182.873,203.417 182.539,204.417 182.5,205.5C 180.829,207.681 179.329,210.015 178,212.5C 177.333,213.833 176.667,213.833 176,212.5C 174.71,214.792 173.043,216.792 171,218.5C 169.445,216.854 167.779,216.521 166,217.5C 166.783,215.655 167.116,213.655 167,211.5C 165.989,210.663 164.822,210.33 163.5,210.5C 164.038,208.883 164.371,207.216 164.5,205.5C 165.153,204.193 165.82,202.86 166.5,201.5C 166.145,200.478 165.478,199.811 164.5,199.5C 164.158,198.662 163.492,198.328 162.5,198.5C 162.038,197.12 161.038,196.453 159.5,196.5C 155.566,197.65 151.566,198.484 147.5,199C 143.138,203.225 137.972,206.058 132,207.5C 131.167,207.333 130.333,207.167 129.5,207C 132.03,204.967 134.363,202.8 136.5,200.5C 140.127,198.506 143.794,196.506 147.5,194.5C 152.444,193.614 157.277,192.281 162,190.5C 171.379,191.355 174.213,196.022 170.5,204.5C 170.624,205.107 170.957,205.44 171.5,205.5 Z"/></g>
<g><path style="opacity:1" fill="#edf4f7" d="M 206.5,130.5 C 209.614,131.091 212.114,132.758 214,135.5C 230.015,160.608 234.015,187.608 226,216.5C 222.062,229.72 215.562,241.387 206.5,251.5C 203.856,250.259 203.023,248.259 204,245.5C 222.703,220.941 228.37,193.608 221,163.5C 217.556,153.276 212.556,143.942 206,135.5C 205.36,133.735 205.527,132.068 206.5,130.5 Z"/></g>
<g><path style="opacity:1" fill="#040813" d="M 186.5,184.5 C 186.665,188.182 186.499,191.848 186,195.5C 185.395,197.481 184.395,197.815 183,196.5C 182.667,193.833 182.333,191.167 182,188.5C 181.292,187.619 180.458,186.953 179.5,186.5C 172.491,180.864 164.491,179.031 155.5,181C 151.73,182.322 148.397,184.156 145.5,186.5C 140.775,185.524 137.108,187.024 134.5,191C 127.079,194.615 120.079,198.782 113.5,203.5C 106.436,206.684 99.7694,210.517 93.5,215C 85.7852,218.738 77.7852,221.571 69.5,223.5C 64.3712,224.28 59.2046,224.947 54,225.5C 46.911,225.741 40.411,224.075 34.5,220.5C 39.8114,221.489 45.1447,222.489 50.5,223.5C 52.299,223.423 53.9656,222.923 55.5,222C 54.1667,221.667 52.8333,221.333 51.5,221C 53.4357,220.187 55.4357,219.687 57.5,219.5C 57.5,218.5 57.5,217.5 57.5,216.5C 55.1917,216.086 52.8583,215.753 50.5,215.5C 48.3066,215.326 46.4733,215.993 45,217.5C 44.5078,216.451 44.6744,215.451 45.5,214.5C 44.675,213.614 43.675,213.281 42.5,213.5C 42.5,212.167 42.5,210.833 42.5,209.5C 39.6545,209.191 38.1545,207.525 38,204.5C 37.8312,199.172 37.9979,193.838 38.5,188.5C 42.4058,190.547 44.7392,189.38 45.5,185C 46.448,184.517 47.448,184.351 48.5,184.5C 46.4884,187.205 44.4884,189.872 42.5,192.5C 38.6174,202.264 41.6174,209.431 51.5,214C 58.6791,214.821 65.6791,214.655 72.5,213.5C 78.1315,212.212 83.7982,210.545 89.5,208.5C 96.0313,204.734 102.698,201.234 109.5,198C 124.078,186.766 140.078,178.1 157.5,172C 163.167,171.333 168.833,171.333 174.5,172C 180.718,174.051 184.718,178.218 186.5,184.5 Z"/></g>
<g><path style="opacity:1" fill="#283042" d="M 51.5,184.5 C 51.3713,186.216 51.038,187.883 50.5,189.5C 49.8826,189.611 49.3826,189.944 49,190.5C 47.5432,196.486 49.3766,200.986 54.5,204C 60.5,204.667 66.5,204.667 72.5,204C 76.4737,203.006 80.1403,201.506 83.5,199.5C 83.8333,199.5 84.1667,199.5 84.5,199.5C 87.006,198.25 89.6726,197.584 92.5,197.5C 80.5941,204.89 67.5941,207.724 53.5,206C 51.3762,204.878 49.5429,203.378 48,201.5C 45.3518,194.988 46.5185,189.322 51.5,184.5 Z"/></g>
<g><path style="opacity:1" fill="#2c374b" d="M 179.5,186.5 C 179.5,187.5 179.5,188.5 179.5,189.5C 173.211,182.93 165.545,180.763 156.5,183C 152.873,184.323 149.207,185.489 145.5,186.5C 148.397,184.156 151.73,182.322 155.5,181C 164.491,179.031 172.491,180.864 179.5,186.5 Z"/></g>
<g><path style="opacity:1" fill="#113076" d="M 134.5,209.5 C 132.166,213.276 128.833,215.609 124.5,216.5C 122.02,217.242 119.687,218.242 117.5,219.5C 119.609,216.366 122.609,214.533 126.5,214C 128.366,210.946 131.033,209.446 134.5,209.5 Z"/></g>
<g><path style="opacity:1" fill="#164ab6" d="M 158.5,203.5 C 156.748,206.672 154.748,209.672 152.5,212.5C 153.524,209.445 154.857,206.445 156.5,203.5C 156,203.167 155.5,202.833 155,202.5C 153.341,203.98 151.508,205.314 149.5,206.5C 146.15,204.726 144.484,205.726 144.5,209.5C 138.557,211.557 133.057,214.557 128,218.5C 126.989,217.663 125.822,217.33 124.5,217.5C 124.5,217.167 124.5,216.833 124.5,216.5C 128.833,215.609 132.166,213.276 134.5,209.5C 135.574,208.115 136.907,206.949 138.5,206C 141.53,205.422 144.197,204.255 146.5,202.5C 150.374,201.239 154.374,200.572 158.5,200.5C 158.5,201.5 158.5,202.5 158.5,203.5 Z"/></g>
<g><path style="opacity:1" fill="#ecf4f8" d="M 203.5,163.5 C 212.343,188.28 209.01,211.28 193.5,232.5C 190.801,235.287 188.467,235.12 186.5,232C 201.909,212.457 206.242,190.623 199.5,166.5C 200.028,165.279 200.695,164.113 201.5,163C 202.437,162.308 203.103,162.475 203.5,163.5 Z"/></g>
<g><path style="opacity:1" fill="#72798f" d="M 171.5,209.5 C 171.833,209.5 172.167,209.5 172.5,209.5C 172.833,209.5 173.167,209.5 173.5,209.5C 172.207,211.296 170.707,212.963 169,214.5C 169.058,212.565 169.891,210.898 171.5,209.5 Z"/></g>
<g><path style="opacity:1" fill="#050817" d="M 162.5,198.5 C 156.609,198.027 151.276,199.36 146.5,202.5C 144.197,204.255 141.53,205.422 138.5,206C 136.907,206.949 135.574,208.115 134.5,209.5C 131.033,209.446 128.366,210.946 126.5,214C 122.609,214.533 119.609,216.366 117.5,219.5C 115.983,219.511 114.816,220.177 114,221.5C 111.404,225.841 109.237,230.174 107.5,234.5C 107.682,232.409 107.348,230.409 106.5,228.5C 108.733,227.104 110.399,225.271 111.5,223C 111.491,221.596 110.991,220.43 110,219.5C 106.281,221.278 102.781,223.445 99.5,226C 99.8333,226.333 100.167,226.667 100.5,227C 88.4264,229.879 76.4264,232.879 64.5,236C 57.5,236.667 50.5,236.667 43.5,236C 40.6262,235.058 37.9596,233.891 35.5,232.5C 37.1667,232.5 38.8333,232.5 40.5,232.5C 41.6002,233.558 42.9336,234.392 44.5,235C 47.5,235.167 50.5,235.333 53.5,235.5C 71.6756,234.206 88.6756,229.039 104.5,220C 115.139,213.406 125.806,206.906 136.5,200.5C 134.363,202.8 132.03,204.967 129.5,207C 130.333,207.167 131.167,207.333 132,207.5C 137.972,206.058 143.138,203.225 147.5,199C 151.566,198.484 155.566,197.65 159.5,196.5C 161.038,196.453 162.038,197.12 162.5,198.5 Z"/></g>
<g><path style="opacity:1" fill="#155fe7" d="M 152.5,212.5 C 148.206,218.736 144.872,225.403 142.5,232.5C 138.284,235.749 135.618,240.083 134.5,245.5C 132.019,245.774 130.353,247.107 129.5,249.5C 127.34,251.801 125.174,254.134 123,256.5C 122.598,257.872 122.098,259.205 121.5,260.5C 118.884,262.803 115.884,264.136 112.5,264.5C 112.553,267.061 111.553,269.061 109.5,270.5C 107.63,268.466 105.963,266.3 104.5,264C 105.684,261.284 106.684,258.451 107.5,255.5C 109.133,256.744 110.133,256.244 110.5,254C 109.306,251.153 109.306,248.32 110.5,245.5C 110.669,246.397 111.002,247.397 111.5,248.5C 112.386,247.675 112.719,246.675 112.5,245.5C 113.552,245.649 114.552,245.483 115.5,245C 114.167,244.333 114.167,243.667 115.5,243C 117.421,242.64 119.088,241.806 120.5,240.5C 120.545,235.302 120.545,230.135 120.5,225C 122.441,224.257 124.274,224.424 126,225.5C 126.49,224.207 126.657,222.873 126.5,221.5C 125.5,221.5 124.5,221.5 123.5,221.5C 123.5,220.5 123.5,219.5 123.5,218.5C 123.5,217.833 123.833,217.5 124.5,217.5C 125.822,217.33 126.989,217.663 128,218.5C 133.057,214.557 138.557,211.557 144.5,209.5C 144.484,205.726 146.15,204.726 149.5,206.5C 151.508,205.314 153.341,203.98 155,202.5C 155.5,202.833 156,203.167 156.5,203.5C 154.857,206.445 153.524,209.445 152.5,212.5 Z"/></g>
<g><path style="opacity:1" fill="#3862b3" d="M 158.5,203.5 C 158.5,204.167 158.5,204.833 158.5,205.5C 153.404,214.701 148.07,223.701 142.5,232.5C 144.872,225.403 148.206,218.736 152.5,212.5C 154.748,209.672 156.748,206.672 158.5,203.5 Z"/></g>
<g><path style="opacity:1" fill="#30384d" d="M 203.5,163.5 C 205.017,163.511 206.184,164.177 207,165.5C 211.699,181.537 211.532,197.537 206.5,213.5C 203.799,219.232 200.799,224.899 197.5,230.5C 196.423,231.705 195.09,232.372 193.5,232.5C 209.01,211.28 212.343,188.28 203.5,163.5 Z"/></g>
<g><path style="opacity:1" fill="#262e3d" d="M 22.5,203.5 C 20.1371,218.453 26.1371,228.12 40.5,232.5C 38.8333,232.5 37.1667,232.5 35.5,232.5C 23.3902,227.543 18.2235,218.543 20,205.5C 20.4169,204.244 21.2502,203.577 22.5,203.5 Z"/></g>
<g><path style="opacity:1" fill="#e9f1f5" d="M 179.5,189.5 C 180.622,196.681 178.955,203.015 174.5,208.5C 174.5,209.167 174.167,209.5 173.5,209.5C 173.167,209.5 172.833,209.5 172.5,209.5C 180.187,193.363 175.187,186.196 157.5,188C 149.929,190.785 142.595,194.119 135.5,198C 118.479,209.67 100.479,219.67 81.5,228C 68.2442,233.25 54.5776,234.75 40.5,232.5C 26.1371,228.12 20.1371,218.453 22.5,203.5C 24.9074,196.916 28.7407,191.249 34,186.5C 30.7953,190.563 28.2953,195.23 26.5,200.5C 23.2232,213.763 28.2232,222.596 41.5,227C 50.1894,227.673 58.856,227.507 67.5,226.5C 77.1312,223.853 86.4645,220.353 95.5,216C 112.097,205.875 128.764,196.041 145.5,186.5C 149.207,185.489 152.873,184.323 156.5,183C 165.545,180.763 173.211,182.93 179.5,189.5 Z"/></g>
<g><path style="opacity:1" fill="#2d384e" d="M 145.5,186.5 C 128.764,196.041 112.097,205.875 95.5,216C 86.4645,220.353 77.1312,223.853 67.5,226.5C 68.1667,225.5 68.8333,224.5 69.5,223.5C 77.7852,221.571 85.7852,218.738 93.5,215C 99.7694,210.517 106.436,206.684 113.5,203.5C 120.079,198.782 127.079,194.615 134.5,191C 137.108,187.024 140.775,185.524 145.5,186.5 Z"/></g>
<g><path style="opacity:1" fill="#1e273a" d="M 42.5,192.5 C 40.8159,204.813 46.1492,211.48 58.5,212.5C 62.97,213.486 67.6367,213.819 72.5,213.5C 65.6791,214.655 58.6791,214.821 51.5,214C 41.6174,209.431 38.6174,202.264 42.5,192.5 Z"/></g>
<g><path style="opacity:1" fill="#2f4785" d="M 162.5,198.5 C 163.492,198.328 164.158,198.662 164.5,199.5C 163.5,199.5 162.5,199.5 161.5,199.5C 161.539,202.089 160.539,204.089 158.5,205.5C 158.5,204.833 158.5,204.167 158.5,203.5C 158.5,202.5 158.5,201.5 158.5,200.5C 154.374,200.572 150.374,201.239 146.5,202.5C 151.276,199.36 156.609,198.027 162.5,198.5 Z"/></g>
<g><path style="opacity:1" fill="#0b1526" d="M 171.5,205.5 C 170.957,205.44 170.624,205.107 170.5,204.5C 174.213,196.022 171.379,191.355 162,190.5C 157.277,192.281 152.444,193.614 147.5,194.5C 147.611,193.883 147.944,193.383 148.5,193C 151.893,192.202 155.226,191.202 158.5,190C 165.095,188.062 170.428,189.729 174.5,195C 173.911,198.704 172.911,202.204 171.5,205.5 Z"/></g>
<g><path style="opacity:1" fill="#040817" d="M 50.5,189.5 C 51.0448,192.813 51.5448,196.146 52,199.5C 60.5237,204.135 69.0237,203.802 77.5,198.5C 79.4086,199.348 81.4086,199.682 83.5,199.5C 80.1403,201.506 76.4737,203.006 72.5,204C 66.5,204.667 60.5,204.667 54.5,204C 49.3766,200.986 47.5432,196.486 49,190.5C 49.3826,189.944 49.8826,189.611 50.5,189.5 Z"/></g>
<g><path style="opacity:1" fill="#d9edf6" d="M 164.5,199.5 C 165.478,199.811 166.145,200.478 166.5,201.5C 165.82,202.86 165.153,204.193 164.5,205.5C 152.341,222.48 140.674,239.813 129.5,257.5C 128.5,258.167 127.5,258.833 126.5,259.5C 128.739,254.593 131.406,249.926 134.5,245.5C 137.132,241.189 139.799,236.856 142.5,232.5C 148.07,223.701 153.404,214.701 158.5,205.5C 160.539,204.089 161.539,202.089 161.5,199.5C 162.5,199.5 163.5,199.5 164.5,199.5 Z"/></g>
<g><path style="opacity:1" fill="#2c3448" d="M 199.5,166.5 C 206.242,190.623 201.909,212.457 186.5,232C 188.467,235.12 190.801,235.287 193.5,232.5C 192.258,236.392 189.758,237.392 186,235.5C 185.333,233.167 185.333,230.833 186,228.5C 190.488,223.843 193.655,218.51 195.5,212.5C 197.52,207.757 199.02,202.757 200,197.5C 200.684,188.276 200.184,179.109 198.5,170C 198.514,168.615 198.848,167.449 199.5,166.5 Z"/></g>
<g><path style="opacity:1" fill="#293346" d="M 222.5,119.5 C 230.72,129.933 236.887,141.6 241,154.5C 250.266,194.077 243.433,230.577 220.5,264C 221.409,266.319 223.075,266.986 225.5,266C 227.976,262.855 230.31,259.688 232.5,256.5C 231.575,260.059 230.242,263.393 228.5,266.5C 223.745,270.803 220.411,269.803 218.5,263.5C 222.495,257.322 226.328,250.988 230,244.5C 232.933,238.864 234.767,232.864 235.5,226.5C 237.225,223.375 238.725,220.042 240,216.5C 242.455,201.265 243.121,185.931 242,170.5C 241.351,163.256 239.685,156.256 237,149.5C 232.812,139.056 227.979,129.056 222.5,119.5 Z"/></g>
<g><path style="opacity:1" fill="#1d273c" d="M 26.5,200.5 C 25.5569,208.827 28.2235,215.494 34.5,220.5C 40.411,224.075 46.911,225.741 54,225.5C 59.2046,224.947 64.3712,224.28 69.5,223.5C 68.8333,224.5 68.1667,225.5 67.5,226.5C 58.856,227.507 50.1894,227.673 41.5,227C 28.2232,222.596 23.2232,213.763 26.5,200.5 Z"/></g>
<g><path style="opacity:1" fill="#242c3d" d="M 230.5,119.5 C 232.017,119.511 233.184,120.177 234,121.5C 259.207,164.973 259.874,208.973 236,253.5C 235.241,255.063 234.074,256.063 232.5,256.5C 235.579,250.673 238.412,244.673 241,238.5C 257.837,196.889 254.337,157.223 230.5,119.5 Z"/></g>
<g><path style="opacity:1" fill="#020f39" d="M 117.5,219.5 C 112.592,228.885 108.258,238.551 104.5,248.5C 105.245,243.772 106.245,239.106 107.5,234.5C 109.237,230.174 111.404,225.841 114,221.5C 114.816,220.177 115.983,219.511 117.5,219.5 Z"/></g>
<g><path style="opacity:1" fill="#232d38" d="M 164.5,205.5 C 164.371,207.216 164.038,208.883 163.5,210.5C 152.158,226.173 140.825,241.839 129.5,257.5C 140.674,239.813 152.341,222.48 164.5,205.5 Z"/></g>
<g><path style="opacity:1" fill="#406bb6" d="M 142.5,232.5 C 139.799,236.856 137.132,241.189 134.5,245.5C 135.618,240.083 138.284,235.749 142.5,232.5 Z"/></g>
<g><path style="opacity:1" fill="#2750a9" d="M 124.5,216.5 C 124.5,216.833 124.5,217.167 124.5,217.5C 123.833,217.5 123.5,217.833 123.5,218.5C 120.628,219.526 118.128,221.192 116,223.5C 111.768,234.143 107.935,244.977 104.5,256C 103.488,258.243 102.155,260.076 100.5,261.5C 101.371,258.888 102.037,256.221 102.5,253.5C 103.931,252.22 104.598,250.553 104.5,248.5C 108.258,238.551 112.592,228.885 117.5,219.5C 119.687,218.242 122.02,217.242 124.5,216.5 Z"/></g>
<g><path style="opacity:1" fill="#000e38" d="M 102.5,253.5 C 102.037,256.221 101.371,258.888 100.5,261.5C 100.5,261.833 100.5,262.167 100.5,262.5C 99.2028,264.371 98.2028,266.371 97.5,268.5C 98.1917,264.11 99.1917,259.776 100.5,255.5C 100.833,254.5 101.5,253.833 102.5,253.5 Z"/></g>
<g><path style="opacity:1" fill="#4571be" d="M 134.5,245.5 C 131.406,249.926 128.739,254.593 126.5,259.5C 126.573,261.027 125.906,262.027 124.5,262.5C 125.337,257.83 127.003,253.497 129.5,249.5C 130.353,247.107 132.019,245.774 134.5,245.5 Z"/></g>
<g><path style="opacity:1" fill="#030319" d="M 100.5,255.5 C 99.1917,259.776 98.1917,264.11 97.5,268.5C 94.925,270.845 93.925,273.845 94.5,277.5C 93.205,281.969 91.5384,286.302 89.5,290.5C 91.8226,279.366 94.656,268.366 98,257.5C 98.7083,256.619 99.5416,255.953 100.5,255.5 Z"/></g>
<g><path style="opacity:1" fill="#2852a4" d="M 100.5,262.5 C 100.41,266.214 99.4098,269.548 97.5,272.5C 97.5,271.167 97.5,269.833 97.5,268.5C 98.2028,266.371 99.2028,264.371 100.5,262.5 Z"/></g>
<g><path style="opacity:1" fill="#3762ba" d="M 124.5,262.5 C 123.833,264.167 123.167,265.833 122.5,267.5C 119.723,269.951 117.723,272.951 116.5,276.5C 114.263,278.647 112.263,280.98 110.5,283.5C 111.433,280.073 112.6,276.74 114,273.5C 117.078,269.482 120.578,265.815 124.5,262.5 Z"/></g>
<g><path style="opacity:1" fill="#061332" d="M 122.5,267.5 C 122.657,268.873 122.49,270.207 122,271.5C 119.724,272.762 117.891,274.429 116.5,276.5C 117.723,272.951 119.723,269.951 122.5,267.5 Z"/></g>
<g><path style="opacity:1" fill="#01174c" d="M 97.5,268.5 C 97.5,269.833 97.5,271.167 97.5,272.5C 96.3127,274.072 95.3127,275.739 94.5,277.5C 93.925,273.845 94.925,270.845 97.5,268.5 Z"/></g>
<g><path style="opacity:1" fill="#185fe2" d="M 123.5,218.5 C 123.5,219.5 123.5,220.5 123.5,221.5C 124.5,221.5 125.5,221.5 126.5,221.5C 126.657,222.873 126.49,224.207 126,225.5C 124.274,224.424 122.441,224.257 120.5,225C 120.545,230.135 120.545,235.302 120.5,240.5C 119.088,241.806 117.421,242.64 115.5,243C 114.167,243.667 114.167,244.333 115.5,245C 114.552,245.483 113.552,245.649 112.5,245.5C 112.719,246.675 112.386,247.675 111.5,248.5C 111.002,247.397 110.669,246.397 110.5,245.5C 109.306,248.32 109.306,251.153 110.5,254C 110.133,256.244 109.133,256.744 107.5,255.5C 106.684,258.451 105.684,261.284 104.5,264C 105.963,266.3 107.63,268.466 109.5,270.5C 111.553,269.061 112.553,267.061 112.5,264.5C 115.884,264.136 118.884,262.803 121.5,260.5C 122.098,259.205 122.598,257.872 123,256.5C 125.174,254.134 127.34,251.801 129.5,249.5C 127.003,253.497 125.337,257.83 124.5,262.5C 120.578,265.815 117.078,269.482 114,273.5C 112.6,276.74 111.433,280.073 110.5,283.5C 108.381,285.308 106.048,286.975 103.5,288.5C 100.549,290.732 98.882,293.732 98.5,297.5C 97.675,298.386 96.675,298.719 95.5,298.5C 95.9215,301.657 94.7548,303.99 92,305.5C 91.8832,309.785 89.7166,311.785 85.5,311.5C 88.7708,298.363 92.7708,285.363 97.5,272.5C 99.4098,269.548 100.41,266.214 100.5,262.5C 100.5,262.167 100.5,261.833 100.5,261.5C 102.155,260.076 103.488,258.243 104.5,256C 107.935,244.977 111.768,234.143 116,223.5C 118.128,221.192 120.628,219.526 123.5,218.5 Z"/></g>
<g><path style="opacity:1" fill="#070b2b" d="M 116.5,276.5 C 111.641,282.916 107.808,289.916 105,297.5C 103.53,298.267 102.03,298.933 100.5,299.5C 103.411,293.918 106.744,288.585 110.5,283.5C 112.263,280.98 114.263,278.647 116.5,276.5 Z"/></g>
<g><path style="opacity:1" fill="#06061b" d="M 89.5,290.5 C 86.4954,300.523 83.4954,310.523 80.5,320.5C 78.5,324.833 76.5,329.167 74.5,333.5C 74.5,330.5 74.5,327.5 74.5,324.5C 75.5,324.5 76.5,324.5 77.5,324.5C 77.3605,320.836 78.0271,317.336 79.5,314C 78.6137,311.192 78.447,308.359 79,305.5C 82.05,300.179 85.55,295.179 89.5,290.5 Z"/></g>
<g><path style="opacity:1" fill="#040f33" d="M 100.5,299.5 C 99.7298,304.55 97.2298,308.55 93,311.5C 92.0528,316.773 89.2195,320.439 84.5,322.5C 89.0968,314.301 94.4301,306.635 100.5,299.5 Z"/></g>
<g><path style="opacity:1" fill="#2d5bbe" d="M 97.5,272.5 C 92.7708,285.363 88.7708,298.363 85.5,311.5C 89.7166,311.785 91.8832,309.785 92,305.5C 94.7548,303.99 95.9215,301.657 95.5,298.5C 96.675,298.719 97.675,298.386 98.5,297.5C 98.882,293.732 100.549,290.732 103.5,288.5C 106.048,286.975 108.381,285.308 110.5,283.5C 106.744,288.585 103.411,293.918 100.5,299.5C 94.4301,306.635 89.0968,314.301 84.5,322.5C 83.2719,323.306 82.2719,324.306 81.5,325.5C 80.6993,323.958 80.366,322.292 80.5,320.5C 83.4954,310.523 86.4954,300.523 89.5,290.5C 91.5384,286.302 93.205,281.969 94.5,277.5C 95.3127,275.739 96.3127,274.072 97.5,272.5 Z"/></g>
<g><path style="opacity:1" fill="#445b90" d="M 80.5,320.5 C 80.366,322.292 80.6993,323.958 81.5,325.5C 79.3448,329.139 77.1782,332.806 75,336.5C 74.5172,335.552 74.3505,334.552 74.5,333.5C 76.5,329.167 78.5,324.833 80.5,320.5 Z"/></g>
</svg>
